<svg xmlns="http://www.w3.org/2000/svg" viewBox="0 0 800 560" width="800" height="560" style="background:#f5f0e8;font-family:'Arial',sans-serif;">

  <!-- 外壁 -->
  <rect x="20" y="20" width="760" height="520" fill="#e8e0d0" stroke="#555" stroke-width="6" rx="2"/>

  <!-- 床 -->
  <rect x="23" y="23" width="754" height="514" fill="#faf7f2"/>

  <!-- グリッド線（薄） -->
  <g stroke="#ddd" stroke-width="0.5">
    <line x1="100" y1="20" x2="100" y2="540"/>
    <line x1="180" y1="20" x2="180" y2="540"/>
    <line x1="260" y1="20" x2="260" y2="540"/>
    <line x1="340" y1="20" x2="340" y2="540"/>
    <line x1="420" y1="20" x2="420" y2="540"/>
    <line x1="500" y1="20" x2="500" y2="540"/>
    <line x1="580" y1="20" x2="580" y2="540"/>
    <line x1="660" y1="20" x2="660" y2="540"/>
    <line x1="740" y1="20" x2="740" y2="540"/>
    <line x1="20" y1="100" x2="780" y2="100"/>
    <line x1="20" y1="180" x2="780" y2="180"/>
    <line x1="20" y1="260" x2="780" y2="260"/>
    <line x1="20" y1="340" x2="780" y2="340"/>
    <line x1="20" y1="420" x2="780" y2="420"/>
    <line x1="20" y1="500" x2="780" y2="500"/>
  </g>

  <!-- ========== エントランス（左下） ========== -->
  <rect x="20" y="400" width="160" height="140" fill="#e8f4ea" stroke="#777" stroke-width="2"/>
  <text x="100" y="462" text-anchor="middle" font-size="11" fill="#555" font-weight="bold">エントランス</text>
  <text x="100" y="478" text-anchor="middle" font-size="9" fill="#777">ENTRANCE</text>
  <!-- 扉 -->
  <line x1="20" y1="480" x2="20" y2="520" stroke="#333" stroke-width="4"/>
  <path d="M20,480 Q50,480 50,510" fill="none" stroke="#555" stroke-width="1.5" stroke-dasharray="3,2"/>

  <!-- ========== ラウンジ（左上エリア） ========== -->
  <rect x="20" y="20" width="220" height="200" fill="#fef9ee" stroke="#777" stroke-width="2"/>
  <text x="130" y="50" text-anchor="middle" font-size="11" fill="#555" font-weight="bold">ラウンジ</text>
  <text x="130" y="64" text-anchor="middle" font-size="9" fill="#777">LOUNGE  約15坪</text>
  <!-- ソファ -->
  <rect x="35" y="75" width="80" height="30" fill="#c9b99a" stroke="#999" stroke-width="1" rx="4"/>
  <rect x="35" y="75" width="80" height="10" fill="#b8a48a" rx="2"/>
  <rect x="125" y="75" width="30" height="80" fill="#c9b99a" stroke="#999" stroke-width="1" rx="4"/>
  <rect x="125" y="75" width="10" height="80" fill="#b8a48a" rx="2"/>
  <rect x="35" y="115" width="80" height="30" fill="#c9b99a" stroke="#999" stroke-width="1" rx="4"/>
  <!-- テーブル -->
  <rect x="60" y="110" width="50" height="30" fill="#d4c5a9" stroke="#999" stroke-width="1" rx="2"/>
  <!-- 観葉植物 -->
  <circle cx="195" cy="170" r="18" fill="#7db87d" opacity="0.7"/>
  <circle cx="185" cy="160" r="12" fill="#5a9e5a" opacity="0.8"/>
  <line x1="195" y1="188" x2="195" y2="200" stroke="#8B6914" stroke-width="2"/>

  <!-- ========== 会議室A（上中央） ========== -->
  <rect x="240" y="20" width="200" height="160" fill="#eef2fb" stroke="#777" stroke-width="2"/>
  <text x="340" y="52" text-anchor="middle" font-size="11" fill="#555" font-weight="bold">会議室 A</text>
  <text x="340" y="66" text-anchor="middle" font-size="9" fill="#777">8名用　約8坪</text>
  <!-- 会議テーブル -->
  <rect x="275" y="80" width="130" height="70" fill="#d4c8b0" stroke="#999" stroke-width="1.5" rx="3"/>
  <!-- 椅子（上） -->
  <rect x="282" y="72" width="18" height="12" fill="#9b8ea0" stroke="#888" stroke-width="1" rx="2"/>
  <rect x="308" y="72" width="18" height="12" fill="#9b8ea0" stroke="#888" stroke-width="1" rx="2"/>
  <rect x="334" y="72" width="18" height="12" fill="#9b8ea0" stroke="#888" stroke-width="1" rx="2"/>
  <rect x="360" y="72" width="18" height="12" fill="#9b8ea0" stroke="#888" stroke-width="1" rx="2"/>
  <!-- 椅子（下） -->
  <rect x="282" y="148" width="18" height="12" fill="#9b8ea0" stroke="#888" stroke-width="1" rx="2"/>
  <rect x="308" y="148" width="18" height="12" fill="#9b8ea0" stroke="#888" stroke-width="1" rx="2"/>
  <rect x="334" y="148" width="18" height="12" fill="#9b8ea0" stroke="#888" stroke-width="1" rx="2"/>
  <rect x="360" y="148" width="18" height="12" fill="#9b8ea0" stroke="#888" stroke-width="1" rx="2"/>
  <!-- 椅子（左右） -->
  <rect x="263" y="88" width="12" height="18" fill="#9b8ea0" stroke="#888" stroke-width="1" rx="2"/>
  <rect x="263" y="114" width="12" height="18" fill="#9b8ea0" stroke="#888" stroke-width="1" rx="2"/>
  <rect x="405" y="88" width="12" height="18" fill="#9b8ea0" stroke="#888" stroke-width="1" rx="2"/>
  <rect x="405" y="114" width="12" height="18" fill="#9b8ea0" stroke="#888" stroke-width="1" rx="2"/>

  <!-- ========== 会議室B（上右） ========== -->
  <rect x="440" y="20" width="160" height="160" fill="#eef2fb" stroke="#777" stroke-width="2"/>
  <text x="520" y="52" text-anchor="middle" font-size="11" fill="#555" font-weight="bold">会議室 B</text>
  <text x="520" y="66" text-anchor="middle" font-size="9" fill="#777">4名用　約5坪</text>
  <!-- 小会議テーブル -->
  <rect x="468" y="80" width="104" height="70" fill="#d4c8b0" stroke="#999" stroke-width="1.5" rx="3"/>
  <!-- 椅子（上） -->
  <rect x="475" y="72" width="18" height="12" fill="#9b8ea0" stroke="#888" stroke-width="1" rx="2"/>
  <rect x="503" y="72" width="18" height="12" fill="#9b8ea0" stroke="#888" stroke-width="1" rx="2"/>
  <rect x="531" y="72" width="18" height="12" fill="#9b8ea0" stroke="#888" stroke-width="1" rx="2"/>
  <!-- 椅子（下） -->
  <rect x="475" y="148" width="18" height="12" fill="#9b8ea0" stroke="#888" stroke-width="1" rx="2"/>
  <rect x="503" y="148" width="18" height="12" fill="#9b8ea0" stroke="#888" stroke-width="1" rx="2"/>
  <rect x="531" y="148" width="18" height="12" fill="#9b8ea0" stroke="#888" stroke-width="1" rx="2"/>

  <!-- ========== テレフォンブース（右上） ========== -->
  <rect x="600" y="20" width="80" height="80" fill="#fdeef5" stroke="#777" stroke-width="2"/>
  <text x="640" y="55" text-anchor="middle" font-size="9" fill="#555" font-weight="bold">TEL</text>
  <text x="640" y="68" text-anchor="middle" font-size="9" fill="#555" font-weight="bold">ブース①</text>
  <rect x="617" y="75" width="46" height="20" fill="#f0c0d8" stroke="#ccc" stroke-width="1" rx="2"/>

  <rect x="680" y="20" width="80" height="80" fill="#fdeef5" stroke="#777" stroke-width="2"/>
  <text x="720" y="55" text-anchor="middle" font-size="9" fill="#555" font-weight="bold">TEL</text>
  <text x="720" y="68" text-anchor="middle" font-size="9" fill="#555" font-weight="bold">ブース②</text>
  <rect x="697" y="75" width="46" height="20" fill="#f0c0d8" stroke="#ccc" stroke-width="1" rx="2"/>

  <!-- ========== 執務スペース（中央・右） ========== -->
  <rect x="240" y="180" width="540" height="360" fill="#f5f0e8" stroke="#777" stroke-width="2"/>
  <text x="510" y="210" text-anchor="middle" font-size="13" fill="#444" font-weight="bold">執務スペース</text>
  <text x="510" y="226" text-anchor="middle" font-size="9" fill="#777">WORK AREA　約22坪</text>

  <!-- 島型デスク 1列目 -->
  <g transform="translate(260,245)">
    <!-- デスク群 -->
    <rect x="0" y="0" width="55" height="35" fill="#d8cfc4" stroke="#aaa" stroke-width="1" rx="1"/>
    <rect x="60" y="0" width="55" height="35" fill="#d8cfc4" stroke="#aaa" stroke-width="1" rx="1"/>
    <rect x="120" y="0" width="55" height="35" fill="#d8cfc4" stroke="#aaa" stroke-width="1" rx="1"/>
    <rect x="180" y="0" width="55" height="35" fill="#d8cfc4" stroke="#aaa" stroke-width="1" rx="1"/>
    <rect x="240" y="0" width="55" height="35" fill="#d8cfc4" stroke="#aaa" stroke-width="1" rx="1"/>
    <!-- PC画面 -->
    <rect x="10" y="5" width="30" height="20" fill="#7090b0" rx="1"/>
    <rect x="70" y="5" width="30" height="20" fill="#7090b0" rx="1"/>
    <rect x="130" y="5" width="30" height="20" fill="#7090b0" rx="1"/>
    <rect x="190" y="5" width="30" height="20" fill="#7090b0" rx="1"/>
    <rect x="250" y="5" width="30" height="20" fill="#7090b0" rx="1"/>
    <!-- 椅子 -->
    <rect x="8" y="36" width="20" height="12" fill="#b0a898" rx="2"/>
    <rect x="68" y="36" width="20" height="12" fill="#b0a898" rx="2"/>
    <rect x="128" y="36" width="20" height="12" fill="#b0a898" rx="2"/>
    <rect x="188" y="36" width="20" height="12" fill="#b0a898" rx="2"/>
    <rect x="248" y="36" width="20" height="12" fill="#b0a898" rx="2"/>
    <!-- 背合わせ -->
    <rect x="0" y="55" width="55" height="35" fill="#d8cfc4" stroke="#aaa" stroke-width="1" rx="1"/>
    <rect x="60" y="55" width="55" height="35" fill="#d8cfc4" stroke="#aaa" stroke-width="1" rx="1"/>
    <rect x="120" y="55" width="55" height="35" fill="#d8cfc4" stroke="#aaa" stroke-width="1" rx="1"/>
    <rect x="180" y="55" width="55" height="35" fill="#d8cfc4" stroke="#aaa" stroke-width="1" rx="1"/>
    <rect x="240" y="55" width="55" height="35" fill="#d8cfc4" stroke="#aaa" stroke-width="1" rx="1"/>
    <rect x="10" y="60" width="30" height="20" fill="#7090b0" rx="1"/>
    <rect x="70" y="60" width="30" height="20" fill="#7090b0" rx="1"/>
    <rect x="130" y="60" width="30" height="20" fill="#7090b0" rx="1"/>
    <rect x="190" y="60" width="30" height="20" fill="#7090b0" rx="1"/>
    <rect x="250" y="60" width="30" height="20" fill="#7090b0" rx="1"/>
    <rect x="8" y="48" width="20" height="10" fill="#b0a898" rx="2"/>
    <rect x="68" y="48" width="20" height="10" fill="#b0a898" rx="2"/>
    <rect x="128" y="48" width="20" height="10" fill="#b0a898" rx="2"/>
    <rect x="188" y="48" width="20" height="10" fill="#b0a898" rx="2"/>
    <rect x="248" y="48" width="20" height="10" fill="#b0a898" rx="2"/>
  </g>

  <!-- 通路ラベル -->
  <text x="510" y="330" text-anchor="middle" font-size="8" fill="#aaa">— 通路 —</text>

  <!-- 島型デスク 2列目 -->
  <g transform="translate(260,350)">
    <rect x="0" y="0" width="55" height="35" fill="#d8cfc4" stroke="#aaa" stroke-width="1" rx="1"/>
    <rect x="60" y="0" width="55" height="35" fill="#d8cfc4" stroke="#aaa" stroke-width="1" rx="1"/>
    <rect x="120" y="0" width="55" height="35" fill="#d8cfc4" stroke="#aaa" stroke-width="1" rx="1"/>
    <rect x="180" y="0" width="55" height="35" fill="#d8cfc4" stroke="#aaa" stroke-width="1" rx="1"/>
    <rect x="240" y="0" width="55" height="35" fill="#d8cfc4" stroke="#aaa" stroke-width="1" rx="1"/>
    <rect x="10" y="5" width="30" height="20" fill="#7090b0" rx="1"/>
    <rect x="70" y="5" width="30" height="20" fill="#7090b0" rx="1"/>
    <rect x="130" y="5" width="30" height="20" fill="#7090b0" rx="1"/>
    <rect x="190" y="5" width="30" height="20" fill="#7090b0" rx="1"/>
    <rect x="250" y="5" width="30" height="20" fill="#7090b0" rx="1"/>
    <rect x="8" y="36" width="20" height="12" fill="#b0a898" rx="2"/>
    <rect x="68" y="36" width="20" height="12" fill="#b0a898" rx="2"/>
    <rect x="128" y="36" width="20" height="12" fill="#b0a898" rx="2"/>
    <rect x="188" y="36" width="20" height="12" fill="#b0a898" rx="2"/>
    <rect x="248" y="36" width="20" height="12" fill="#b0a898" rx="2"/>
    <rect x="0" y="55" width="55" height="35" fill="#d8cfc4" stroke="#aaa" stroke-width="1" rx="1"/>
    <rect x="60" y="55" width="55" height="35" fill="#d8cfc4" stroke="#aaa" stroke-width="1" rx="1"/>
    <rect x="120" y="55" width="55" height="35" fill="#d8cfc4" stroke="#aaa" stroke-width="1" rx="1"/>
    <rect x="180" y="55" width="55" height="35" fill="#d8cfc4" stroke="#aaa" stroke-width="1" rx="1"/>
    <rect x="240" y="55" width="55" height="35" fill="#d8cfc4" stroke="#aaa" stroke-width="1" rx="1"/>
    <rect x="10" y="60" width="30" height="20" fill="#7090b0" rx="1"/>
    <rect x="70" y="60" width="30" height="20" fill="#7090b0" rx="1"/>
    <rect x="130" y="60" width="30" height="20" fill="#7090b0" rx="1"/>
    <rect x="190" y="60" width="30" height="20" fill="#7090b0" rx="1"/>
    <rect x="250" y="60" width="30" height="20" fill="#7090b0" rx="1"/>
    <rect x="8" y="48" width="20" height="10" fill="#b0a898" rx="2"/>
    <rect x="68" y="48" width="20" height="10" fill="#b0a898" rx="2"/>
    <rect x="128" y="48" width="20" height="10" fill="#b0a898" rx="2"/>
    <rect x="188" y="48" width="20" height="10" fill="#b0a898" rx="2"/>
    <rect x="248" y="48" width="20" height="10" fill="#b0a898" rx="2"/>
  </g>

  <!-- ========== 収納・サーバー（右下） ========== -->
  <rect x="620" y="440" width="160" height="100" fill="#e8e4dc" stroke="#777" stroke-width="2"/>
  <text x="700" y="486" text-anchor="middle" font-size="10" fill="#666" font-weight="bold">収納・サーバー</text>
  <text x="700" y="500" text-anchor="middle" font-size="9" fill="#888">約4坪</text>
  <rect x="635" y="455" width="30" height="50" fill="#ccc" stroke="#aaa" stroke-width="1" rx="1"/>
  <rect x="672" y="455" width="30" height="50" fill="#ccc" stroke="#aaa" stroke-width="1" rx="1"/>
  <rect x="709" y="455" width="30" height="50" fill="#ccc" stroke="#aaa" stroke-width="1" rx="1"/>

  <!-- ========== 仕切り壁 ========== -->
  <!-- ラウンジ〜執務 縦壁 -->
  <line x1="240" y1="20" x2="240" y2="540" stroke="#555" stroke-width="4"/>
  <!-- 上部横壁（会議室下） -->
  <line x1="240" y1="180" x2="780" y2="180" stroke="#555" stroke-width="4"/>
  <!-- 会議室AB仕切り -->
  <line x1="440" y1="20" x2="440" y2="180" stroke="#555" stroke-width="3"/>
  <!-- ブース仕切り -->
  <line x1="600" y1="20" x2="600" y2="100" stroke="#555" stroke-width="3"/>
  <line x1="680" y1="20" x2="680" y2="100" stroke="#555" stroke-width="3"/>
  <line x1="600" y1="100" x2="780" y2="100" stroke="#555" stroke-width="3"/>
  <!-- エントランス縦壁 -->
  <line x1="180" y1="400" x2="240" y2="400" stroke="#555" stroke-width="4"/>
  <line x1="180" y1="400" x2="180" y2="540" stroke="#555" stroke-width="4"/>
  <!-- 収納壁 -->
  <line x1="620" y1="440" x2="780" y2="440" stroke="#555" stroke-width="3"/>
  <line x1="620" y1="440" x2="620" y2="540" stroke="#555" stroke-width="3"/>

  <!-- ========== 寸法線 ========== -->
  <line x1="20" y1="550" x2="780" y2="550" stroke="#888" stroke-width="1" marker-end="url(#arrow)"/>
  <text x="400" y="558" text-anchor="middle" font-size="9" fill="#666">約23m（1/100スケール）</text>
  <line x1="790" y1="20" x2="790" y2="540" stroke="#888" stroke-width="1"/>
  <text x="795" y="285" text-anchor="start" font-size="9" fill="#666" transform="rotate(90,795,285)">約17m</text>

  <!-- ========== タイトル ========== -->
  <rect x="580" y="470" width="0" height="0" fill="none"/>
  <text x="400" y="14" text-anchor="middle" font-size="10" fill="#888">SAMPLE OFFICE FLOOR PLAN　50坪（約165㎡）　縮尺1/100</text>

</svg>
